<svg width="14" height="18" viewBox="0 0 14 18" fill="none" xmlns="http://www.w3.org/2000/svg">
<path d="M12.25 0H1.75C0.907993 0 0.329099 0.846254 0.634281 1.63101L0.896869 2.30624C1.45957 3.75318 2.31478 5.06844 3.409 6.16978L5.29891 8.07197C5.80783 8.69686 5.79574 9.57944 5.26988 10.1912L3.00438 12.6426C2.17397 13.5412 1.49962 14.5723 1.0092 15.6932L0.701433 16.3967C0.370606 17.1529 0.924622 18 1.75 18H12.25C13.0754 18 13.6294 17.1529 13.2986 16.3967L12.9908 15.6932C12.5004 14.5723 11.826 13.5412 10.9956 12.6426L8.73012 10.1912C8.20426 9.57944 8.19217 8.69686 8.70109 8.07197L10.591 6.16978C11.6852 5.06844 12.5404 3.75318 13.1031 2.30624L13.3657 1.63101C13.6709 0.846254 13.092 0 12.25 0Z" fill="black"/>
<path d="M12.25 0H1.75C0.907993 0 0.329099 0.846254 0.634281 1.63101L0.896869 2.30624C1.45957 3.75318 2.31478 5.06844 3.409 6.16978L5.29891 8.07197C5.80783 8.69686 5.79574 9.57944 5.26988 10.1912L3.00438 12.6426C2.17397 13.5412 1.49962 14.5723 1.0092 15.6932L0.701433 16.3967C0.370606 17.1529 0.924622 18 1.75 18H12.25C13.0754 18 13.6294 17.1529 13.2986 16.3967L12.9908 15.6932C12.5004 14.5723 11.826 13.5412 10.9956 12.6426L8.73012 10.1912C8.20426 9.57944 8.19217 8.69686 8.70109 8.07197L10.591 6.16978C11.6852 5.06844 12.5404 3.75318 13.1031 2.30624L13.3657 1.63101C13.6709 0.846254 13.092 0 12.25 0Z" fill="url(#paint0_linear_10_30)"/>
<defs>
<linearGradient id="paint0_linear_10_30" x1="14" y1="18" x2="0.5" y2="0.500001" gradientUnits="userSpaceOnUse">
<stop offset="0.5" stop-color="#7C3AED" stop-opacity="0.74"/>
<stop offset="1" stop-color="#06B6D4"/>
</linearGradient>
</defs>
</svg>
