<svg width="25" height="24" viewBox="0 0 25 24" fill="none" xmlns="http://www.w3.org/2000/svg">
<path d="M15.9797 15.4359C16.6346 15.6542 17.3425 15.3002 17.5609 14.6453C17.7792 13.9904 17.4252 13.2825 16.7703 13.0641L16.375 14.25L15.9797 15.4359ZM13 13.125H11.75C11.75 13.663 12.0943 14.1407 12.6047 14.3109L13 13.125ZM14.25 8.42087C14.25 7.73051 13.6904 7.17087 13 7.17087C12.3096 7.17087 11.75 7.73051 11.75 8.42087H13H14.25ZM16.375 14.25L16.7703 13.0641L13.3953 11.9391L13 13.125L12.6047 14.3109L15.9797 15.4359L16.375 14.25ZM13 13.125H14.25V8.42087H13H11.75V13.125H13ZM22 12H20.75C20.75 16.2802 17.2802 19.75 13 19.75V21V22.25C18.6609 22.25 23.25 17.6609 23.25 12H22ZM13 21V19.75C8.71979 19.75 5.25 16.2802 5.25 12H4H2.75C2.75 17.6609 7.33908 22.25 13 22.25V21ZM4 12H5.25C5.25 7.71979 8.71979 4.25 13 4.25V3V1.75C7.33908 1.75 2.75 6.33908 2.75 12H4ZM13 3V4.25C17.2802 4.25 20.75 7.71979 20.75 12H22H23.25C23.25 6.33908 18.6609 1.75 13 1.75V3Z" fill="url(#paint0_linear_13_34)"/>
<defs>
<linearGradient id="paint0_linear_13_34" x1="7.56637" y1="3" x2="18.4336" y2="21" gradientUnits="userSpaceOnUse">
<stop stop-color="#AE1495"/>
<stop offset="1" stop-color="#58079E"/>
</linearGradient>
</defs>
</svg>
